<?xml version="1.0" encoding="UTF-8" standalone="no"?>
<!DOCTYPE svg PUBLIC "-//W3C//DTD SVG 20010904//EN" "http://www.w3.org/TR/2001/REC-SVG-20010904/DTD/svg10.dtd">
<svg version="1.0" xmlns="http://www.w3.org/2000/svg" width="1280.000000pt" height="1280.000000pt" viewBox="0 0 1280.000000 1280.000000" preserveAspectRatio="xMidYMid meet">
<g transform="translate(0.000000,1280.000000) scale(0.100000,-0.100000)" fill="#000000" stroke="none">
<path d="M7983 10759 c-407 -47 -983 -406 -1269 -790 -165 -220 -262 -430 -346 -746 l-42 -158 2 -168 c2 -92 7 -178 12 -192 13 -33 38 -38 214 -39 146 -1 155 0 280 37 334 97 579 243 753 450 42 51 105 119 138 153 110 108 251 348 329 556 78 209 113 403 123 679 l6 177 -26 26 c-29 29 -45 30 -174 15z"/>
<path d="M7890 8692 c-198 -10 -731 -158 -1114 -308 -232 -91 -232 -91 -278 -99 -80 -13 -276 44 -613 180 -179 71 -363 125 -635 187 -114 25 -303 28 -385 5 -33 -9 -137 -30 -231 -46 -202 -36 -316 -71 -468 -146 -459 -224 -772 -546 -1020 -1050 -110 -222 -191 -439 -251 -670 -89 -343 -91 -1001 -4 -1400 10 -49 19 -107 19 -130 0 -48 9 -84 93 -415 78 -306 70 -281 219 -655 209 -525 275 -641 702 -1230 175 -241 264 -351 393 -482 135 -138 244 -218 398 -294 174 -85 250 -104 410 -103 205 0 370 42 684 174 198 83 211 87 571 161 108 23 208 21 360 -4 52 -8 130 -20 172 -26 85 -12 171 -40 393 -129 268 -108 457 -156 655 -168 288 -18 566 110 863 395 303 293 586 694 872 1235 77 146 200 445 221 535 9 36 24 81 35 99 10 18 19 43 19 54 0 36 -73 93 -202 158 -243 125 -482 339 -643 580 -115 173 -231 432 -260 585 -49 252 -63 528 -35 720 7 50 32 155 56 235 103 347 174 486 335 658 49 51 89 98 89 102 0 17 245 222 305 255 33 19 75 48 93 66 55 54 47 75 -91 237 -185 217 -418 395 -692 528 -171 83 -289 124 -454 158 -169 36 -421 57 -581 48z"/>
</g>
</svg>
