<?xml version="1.0" standalone="no"?>
<!DOCTYPE svg PUBLIC "-//W3C//DTD SVG 20010904//EN" "http://www.w3.org/TR/2001/REC-SVG-20010904/DTD/svg10.dtd">
<svg version="1.0" xmlns="http://www.w3.org/2000/svg" width="1280.000000pt" height="1280.000000pt" viewBox="0 0 1280.000000 1280.000000" preserveAspectRatio="xMidYMid meet">
<g transform="translate(0.000000,1280.000000) scale(0.100000,-0.100000)" fill="#000000" stroke="none">
<path d="M4898 11814 c-62 -33 -58 67 -58 -1548 l0 -1475 -742 -3 -743 -3 -62
-23 c-70 -27 -143 -85 -167 -136 -21 -45 -20 -113 2 -154 9 -18 64 -87 122
-154 223 -260 2765 -3163 2826 -3227 75 -80 143 -115 257 -133 130 -20 284 19
361 90 34 32 2942 3353 2976 3400 18 24 25 49 28 95 3 57 1 66 -27 104 -37 51
-87 85 -167 116 -59 22 -60 22 -796 25 l-738 3 0 1475 c0 1621 4 1516 -60
1549 -26 13 -205 15 -1507 15 -1288 -1 -1482 -3 -1505 -16z"/>
<path d="M3286 7168 c-28 -27 -2170 -4107 -2181 -4156 -5 -23 -2 -40 9 -57
l16 -25 5274 0 c4861 0 5275 1 5287 16 8 9 13 33 12 53 0 27 -262 534 -1077
2091 -623 1189 -1087 2064 -1102 2078 -25 22 -30 22 -288 22 l-263 0 -114
-132 c-63 -73 -433 -498 -824 -944 -390 -446 -795 -908 -898 -1027 -223 -256
-300 -330 -381 -368 -88 -41 -146 -49 -355 -49 -195 0 -252 8 -351 51 -53 23
-252 219 -415 409 -50 57 -252 289 -450 515 -779 888 -1086 1238 -1215 1388
l-135 157 -262 0 c-258 0 -262 0 -287 -22z"/>
<path d="M1134 2606 l-34 -34 0 -903 c0 -841 2 -905 18 -925 9 -12 27 -27 39
-33 31 -16 10455 -16 10486 0 12 6 30 21 39 33 16 20 18 84 18 924 l0 904 -34
34 -34 34 -5232 0 -5232 0 -34 -34z m8882 -533 c186 -97 260 -311 172 -500
-32 -69 -123 -156 -195 -184 l-58 -24 -4065 -3 c-4482 -2 -4128 -7 -4232 59
-64 41 -105 90 -141 168 -27 57 -31 77 -30 146 0 105 28 176 95 251 47 51 116
96 178 115 14 4 1868 7 4120 6 l4095 -2 61 -32z m1089 -84 c128 -60 183 -220
119 -347 -62 -124 -219 -176 -342 -113 -145 75 -185 267 -82 393 68 83 207
113 305 67z"/>
</g>
</svg>
