<?xml version="1.0" standalone="no"?>
<!DOCTYPE svg PUBLIC "-//W3C//DTD SVG 20010904//EN" "http://www.w3.org/TR/2001/REC-SVG-20010904/DTD/svg10.dtd">
<svg version="1.0" xmlns="http://www.w3.org/2000/svg" width="1280.000000pt" height="1280.000000pt" viewBox="0 0 1280.000000 1280.000000" preserveAspectRatio="xMidYMid meet">
<g transform="translate(112.000000,1280.000000) scale(0.100000,-0.100000)" fill="#000000" stroke="none">
<path d="M5330 12793 c-311 -24 -596 -93 -816 -198 -328 -155 -554 -377 -714
-700 -127 -257 -196 -525 -229 -895 -16 -167 -13 -659 5 -920 25 -386 29 -683
10 -850 -55 -472 -167 -813 -390 -1188 -84 -140 -152 -234 -317 -439 -784
-972 -1296 -1965 -1429 -2773 -35 -216 -46 -417 -31 -611 l13 -171 -64 -66
c-36 -37 -118 -139 -183 -227 -190 -257 -228 -285 -520 -390 -245 -88 -329
-136 -434 -251 -163 -178 -192 -354 -131 -779 19 -134 30 -251 30 -322 0 -102
-3 -122 -35 -218 -69 -205 -89 -306 -89 -455 -1 -102 4 -148 17 -190 53 -168
175 -284 369 -351 113 -38 251 -65 490 -94 725 -89 850 -119 1188 -280 404
-193 658 -262 992 -272 121 -4 215 -1 269 6 326 48 587 215 724 463 l37 68 60
0 c73 0 136 9 443 65 598 109 821 119 1250 55 315 -46 462 -60 654 -65 l173
-4 23 -65 c63 -180 229 -397 385 -503 457 -310 1104 -193 1645 297 44 39 136
135 205 211 241 268 386 367 941 644 302 151 360 183 466 262 115 86 179 170
213 282 63 202 -28 433 -297 753 -138 166 -165 226 -243 553 -22 94 -52 206
-66 250 -65 201 -170 333 -337 421 -53 28 -67 40 -62 52 20 50 86 334 101 437
23 150 26 570 6 710 -66 443 -174 785 -387 1220 -214 436 -547 935 -910 1365
-151 179 -381 482 -495 653 -235 350 -361 668 -400 1002 -5 50 -10 315 -10
595 0 762 -28 1095 -125 1488 -217 881 -723 1346 -1545 1421 -107 10 -346 12
-450 4z m663 -1791 c218 -78 393 -305 452 -587 22 -105 23 -315 1 -411 -26
-121 -102 -298 -156 -362 l-19 -23 -138 54 c-76 30 -148 58 -160 61 l-22 7 29
47 c96 158 107 419 25 582 -76 150 -193 204 -313 144 -61 -30 -102 -74 -142
-154 -45 -89 -60 -160 -60 -282 0 -59 -2 -108 -4 -108 -2 0 -32 13 -67 29 -35
16 -97 39 -137 51 -39 12 -75 26 -78 31 -13 21 -5 267 11 344 44 210 163 404
311 505 58 40 141 78 196 90 68 14 205 5 271 -18z m-1643 -113 c48 -12 120
-59 171 -111 135 -138 219 -383 219 -639 l0 -67 -37 -13 c-43 -13 -193 -86
-207 -100 -19 -17 -21 -8 -22 84 -3 280 -179 478 -318 357 -138 -122 -127
-514 18 -649 14 -14 26 -28 26 -32 0 -8 -137 -109 -149 -109 -21 0 -86 92
-132 185 -73 150 -93 245 -94 440 0 136 4 173 23 244 47 172 123 295 227 366
85 59 166 72 275 44z m2164 -2135 c102 -359 233 -734 411 -1179 173 -431 252
-606 475 -1050 227 -453 308 -639 410 -945 62 -184 149 -510 166 -615 l6 -41
111 -13 c185 -22 167 -27 193 55 137 434 72 933 -187 1442 -113 221 -239 401
-402 575 -109 116 -134 155 -113 176 13 12 20 10 54 -17 100 -80 302 -322 437
-527 250 -377 393 -730 456 -1130 20 -123 17 -439 -5 -560 -10 -55 -19 -105
-20 -111 0 -7 71 -48 159 -92 360 -181 550 -346 607 -526 16 -48 19 -79 15
-146 -7 -116 -9 -120 -67 -120 l-48 0 5 83 c4 68 1 92 -17 140 -46 121 -209
257 -456 377 -378 186 -652 231 -840 140 -114 -55 -181 -154 -211 -313 l-16
-83 -81 -42 c-158 -81 -267 -195 -351 -367 -119 -244 -169 -528 -205 -1169
-13 -230 -52 -420 -157 -771 l-18 -60 -115 -77 c-137 -92 -401 -229 -560 -292
-329 -128 -629 -186 -962 -186 -413 1 -780 105 -1136 323 -77 46 -89 59 -152
151 -38 56 -119 165 -180 244 -60 79 -110 145 -110 148 0 2 19 4 43 4 56 0
158 25 208 51 146 74 208 229 165 412 -23 97 -99 251 -182 367 -87 122 -360
395 -519 518 -66 51 -232 168 -370 260 -221 146 -263 179 -366 281 -164 164
-256 309 -320 504 -182 557 -2 1247 578 2220 52 86 98 157 104 157 31 0 -11
-99 -205 -485 -89 -176 -178 -366 -199 -422 -205 -567 -220 -1023 -47 -1417
38 -85 138 -256 151 -256 3 0 9 62 12 138 17 353 116 809 262 1202 53 143 115
283 290 660 485 1046 700 1677 756 2220 7 63 13 116 14 118 7 8 240 -154 308
-214 150 -132 230 -193 296 -228 252 -132 561 -123 853 24 43 22 145 81 226
132 102 64 182 105 261 135 221 84 369 177 478 299 32 35 58 62 59 61 1 -1 22
-75 48 -163z m-4687 -4700 c-3 -3 -12 -4 -19 -1 -8 3 -5 6 6 6 11 1 17 -2 13
-5z m-103 -28 c-59 -22 -102 -47 -154 -90 -19 -16 -18 -14 5 12 33 36 156 102
189 101 11 0 -6 -10 -40 -23z m618 -203 c42 -43 89 -94 104 -113 15 -19 -10 4
-55 52 -45 48 -105 108 -134 134 -29 26 -38 37 -21 26 16 -11 64 -56 106 -99z
m-1853 -717 c-2 -2 -24 -19 -49 -38 -50 -38 -81 -57 -65 -41 16 17 106 83 112
83 4 0 4 -2 2 -4z m-242 -373 c-3 -10 -5 -4 -5 12 0 17 2 24 5 18 2 -7 2 -21
0 -30z m3750 -1565 c-3 -8 -6 -5 -6 6 -1 11 2 17 5 13 3 -3 4 -12 1 -19z
m-3502 -211 c50 -14 108 -29 130 -33 22 -4 34 -9 27 -12 -23 -7 -272 61 -272
75 0 3 6 3 13 0 6 -2 53 -16 102 -30z m208 -54 c-7 -2 -19 -2 -25 0 -7 3 -2 5
12 5 14 0 19 -2 13 -5z m3201 -215 c-40 -78 -134 -178 -209 -222 -22 -13 -19
-9 10 15 69 56 139 132 174 187 39 59 50 68 25 20z"/>
</g>
</svg>
